<mxfile host="65bd71144e">
    <diagram id="a0IY9pOavN5R539W80ek" name="ページ1">
        <mxGraphModel dx="334" dy="163" grid="1" gridSize="10" guides="1" tooltips="1" connect="1" arrows="1" fold="1" page="1" pageScale="1" pageWidth="827" pageHeight="1169" math="1" shadow="0">
            <root>
                <mxCell id="0"/>
                <mxCell id="1" parent="0"/>
                <mxCell id="2" value="$$A$$" style="whiteSpace=wrap;html=1;" parent="1" vertex="1">
                    <mxGeometry x="40" y="40" width="60" height="60" as="geometry"/>
                </mxCell>
                <mxCell id="3" value="$$B$$" style="whiteSpace=wrap;html=1;" parent="1" vertex="1">
                    <mxGeometry x="110" y="40" width="60" height="60" as="geometry"/>
                </mxCell>
                <mxCell id="4" value="" style="edgeStyle=none;orthogonalLoop=1;jettySize=auto;html=1;" parent="1" edge="1">
                    <mxGeometry width="100" relative="1" as="geometry">
                        <mxPoint x="180" y="80" as="sourcePoint"/>
                        <mxPoint x="280" y="80" as="targetPoint"/>
                        <Array as="points"/>
                    </mxGeometry>
                </mxCell>
                <mxCell id="5" value="lifting" style="text;html=1;align=center;verticalAlign=middle;resizable=0;points=[];autosize=1;strokeColor=none;fillColor=none;strokeWidth=1;fontSize=14;" parent="1" vertex="1">
                    <mxGeometry x="198" y="53" width="60" height="30" as="geometry"/>
                </mxCell>
                <mxCell id="6" value="$$A&#39;$$" style="whiteSpace=wrap;html=1;" parent="1" vertex="1">
                    <mxGeometry x="284" y="30" width="60" height="97" as="geometry"/>
                </mxCell>
                <mxCell id="8" value="$$B&#39;$$" style="whiteSpace=wrap;html=1;" parent="1" vertex="1">
                    <mxGeometry x="360" y="60" width="100" height="50" as="geometry"/>
                </mxCell>
                <mxCell id="9" value="" style="edgeStyle=none;orthogonalLoop=1;jettySize=auto;html=1;" parent="1" edge="1">
                    <mxGeometry width="100" relative="1" as="geometry">
                        <mxPoint x="396" y="143" as="sourcePoint"/>
                        <mxPoint x="396" y="210" as="targetPoint"/>
                        <Array as="points"/>
                    </mxGeometry>
                </mxCell>
                <mxCell id="10" value="Algorithm \(M\)" style="text;html=1;align=center;verticalAlign=middle;resizable=0;points=[];autosize=1;strokeColor=none;fillColor=none;" parent="1" vertex="1">
                    <mxGeometry x="284" y="160" width="100" height="30" as="geometry"/>
                </mxCell>
                <mxCell id="11" value="$$M(A&#39;,B&#39;)$$" style="whiteSpace=wrap;html=1;" parent="1" vertex="1">
                    <mxGeometry x="350" y="220" width="100" height="97" as="geometry"/>
                </mxCell>
                <mxCell id="12" value="$$\approx$$" style="text;html=1;align=center;verticalAlign=middle;resizable=0;points=[];autosize=1;strokeColor=none;fillColor=none;" parent="1" vertex="1">
                    <mxGeometry x="430" y="253.5" width="90" height="30" as="geometry"/>
                </mxCell>
                <mxCell id="13" value="$$A&#39;B&#39;=\mathrm{Enc}(AB)$$" style="whiteSpace=wrap;html=1;fontSize=10;" parent="1" vertex="1">
                    <mxGeometry x="500" y="220" width="100" height="97" as="geometry"/>
                </mxCell>
                <mxCell id="14" value="$$AB$$" style="whiteSpace=wrap;html=1;" parent="1" vertex="1">
                    <mxGeometry x="80" y="317" width="41.95" height="43" as="geometry"/>
                </mxCell>
                <mxCell id="15" value="" style="edgeStyle=none;orthogonalLoop=1;jettySize=auto;html=1;" parent="1" edge="1">
                    <mxGeometry width="100" relative="1" as="geometry">
                        <mxPoint x="322" y="269" as="sourcePoint"/>
                        <mxPoint x="192" y="268.75" as="targetPoint"/>
                        <Array as="points"/>
                    </mxGeometry>
                </mxCell>
                <mxCell id="18" value="&lt;div&gt;&lt;span style=&quot;background-color: transparent;&quot;&gt;&lt;b&gt;approximate&lt;/b&gt;&lt;br&gt;list-decoding&lt;/span&gt;&lt;/div&gt;" style="text;html=1;align=center;verticalAlign=middle;resizable=0;points=[];autosize=1;strokeColor=none;fillColor=none;strokeWidth=1;fontSize=14;" parent="1" vertex="1">
                    <mxGeometry x="202" y="223.5" width="110" height="50" as="geometry"/>
                </mxCell>
                <mxCell id="19" value="list of matrices" style="text;html=1;align=center;verticalAlign=middle;resizable=0;points=[];autosize=1;strokeColor=none;fillColor=none;" parent="1" vertex="1">
                    <mxGeometry x="40" y="208.5" width="100" height="30" as="geometry"/>
                </mxCell>
                <mxCell id="20" value="" style="whiteSpace=wrap;html=1;" vertex="1" parent="1">
                    <mxGeometry x="16" y="247.38" width="41.22" height="42.25" as="geometry"/>
                </mxCell>
                <mxCell id="21" value="" style="whiteSpace=wrap;html=1;" vertex="1" parent="1">
                    <mxGeometry x="147.22" y="247.38" width="41.22" height="42.25" as="geometry"/>
                </mxCell>
                <mxCell id="23" value="$$\exists C$$" style="whiteSpace=wrap;html=1;" vertex="1" parent="1">
                    <mxGeometry x="80.73" y="247.38" width="41.22" height="42.25" as="geometry"/>
                </mxCell>
                <mxCell id="24" value="$$\approx$$" style="text;html=1;align=center;verticalAlign=middle;resizable=0;points=[];autosize=1;strokeColor=none;fillColor=none;rotation=90;" vertex="1" parent="1">
                    <mxGeometry x="57.22" y="288.63" width="90" height="30" as="geometry"/>
                </mxCell>
                <mxCell id="25" value="$$\dots$$" style="text;html=1;align=center;verticalAlign=middle;resizable=0;points=[];autosize=1;strokeColor=none;fillColor=none;" vertex="1" parent="1">
                    <mxGeometry x="94" y="250.5" width="80" height="30" as="geometry"/>
                </mxCell>
                <mxCell id="26" value="$$\dots$$" style="text;html=1;align=center;verticalAlign=middle;resizable=0;points=[];autosize=1;strokeColor=none;fillColor=none;" vertex="1" parent="1">
                    <mxGeometry x="28" y="250.5" width="80" height="30" as="geometry"/>
                </mxCell>
                <mxCell id="27" value="encoding of \(AB\) by&lt;div&gt;&lt;b&gt;expander-walk code&lt;/b&gt;&lt;/div&gt;" style="text;html=1;align=center;verticalAlign=middle;resizable=0;points=[];autosize=1;strokeColor=none;fillColor=none;" vertex="1" parent="1">
                    <mxGeometry x="480" y="173.5" width="140" height="40" as="geometry"/>
                </mxCell>
                <mxCell id="28" value="$$99\%$$" style="text;html=1;align=center;verticalAlign=middle;resizable=0;points=[];autosize=1;strokeColor=none;fillColor=none;fontSize=8;" vertex="1" parent="1">
                    <mxGeometry x="85" y="293.63" width="60" height="20" as="geometry"/>
                </mxCell>
                <mxCell id="29" value="$$1\%$$" style="text;html=1;align=center;verticalAlign=middle;resizable=0;points=[];autosize=1;strokeColor=none;fillColor=none;fontSize=8;" vertex="1" parent="1">
                    <mxGeometry x="445" y="273.5" width="60" height="20" as="geometry"/>
                </mxCell>
            </root>
        </mxGraphModel>
    </diagram>
</mxfile>